{"title":"RoboCop (2014) 720p Blu-Ray x264 [Dual-Audio] [English BD 5.1 +","uid":10118819,"size":1364832455,"categoryP":"video","categoryS":"hd___movies","magnet":"?xt=urn:btih:2bfac79fe498301527f78faef66b5031dd20ed46&amp;dn=RoboCop+%282014%29+720p+Blu-Ray+x264+%5BDual-Audio%5D+%5BEnglish+BD+5.1+%2B+&amp;tr=udp%3A%2F%2Ftracker.openbittorrent.com%3A80&amp;tr=udp%3A%2F%2Fopen.demonii.com%3A1337&amp;tr=udp%3A%2F%2Ftracker.coppersurfer.tk%3A6969&amp;tr=udp%3A%2F%2Fexodus.desync.com%3A6969","seeders":11,"leechers":5,"uploader":null,"files":3,"time":1399646972,"description":"Cover:\n &lt;a href=&quot;\nhttp://imgfun.biz/x/img-536ccce189152.html&quot; rel=&quot;nofollow&quot; target=&quot;_NEW&quot;&gt;\nhttp://imgfun.biz/x/img-536ccce189152.html&lt;/a&gt;\n\n\nINFO:\n\nIMDB Rating: 6.5/10.0\n\n\nGENRE: Action | Crime | Sci-Fi\n\n\nGeneral\nUnique ID : 203454921439943237389465833581196184531 (0x990FFE17FB045ED8B47DC54B27B98BD3)\nComplete name : RoboCop (2014) 720p Blu-Ray x264 [Dual-Audio] [English BD 5.1 + Hindi BD 5.1 (448KBPS)] - Mafiaking - [D3Si MaNiaCs].mkv\nFormat : Matroska\nFormat version : Version 4 / Version 2\nFile size : 1.27 GiB\nDuration : 1h 57mn\nOverall bit rate : 1 542 Kbps\nMovie name : RoboCop (2014) 720p Blu-Ray x264 [Dual-Audio] [English BD 5.1 + Hindi BD 5.1 (448KBPS)] - Mafiaking - [D3Si MaNiaCs]\nEncoded date : UTC 2014-05-09 05:16:16\nWriting application : mkvmerge v6.5.0 ('Isn't she lovely') built on Oct 20 2013 12:50:05\nWriting library : libebml v1.3.0 + libmatroska v1.4.1\n\nVideo\nID : 1\nFormat : AVC\nFormat/Info : Advanced Video Codec\nFormat profile : &lt;a class=&quot;__cf_email__&quot; href=&quot;/cdn-cgi/l/email-protection&quot; data-cfemail=&quot;2f674648476f631c011e&quot;&gt;[email&amp;#160;protected]&lt;/a&gt;&lt;script cf-hash='f9e31' type=&quot;text/javascript&quot;&gt;\n/* &lt;![CDATA[ */!function(){try{var t=&quot;currentScript&quot;in document?document.currentScript:function(){for(var t=document.getElementsByTagName(&quot;script&quot;),e=t.length;e--;)if(t[e].getAttribute(&quot;cf-hash&quot;))return t[e]}();if(t&amp;&amp;t.previousSibling){var e,r,n,i,c=t.previousSibling,a=c.getAttribute(&quot;data-cfemail&quot;);if(a){for(e=&quot;&quot;,r=parseInt(a.substr(0,2),16),n=2;a.length-n;n+=2)i=parseInt(a.substr(n,2),16)^r,e+=String.fromCharCode(i);e=document.createTextNode(e),c.parentNode.replaceChild(e,c)}}}catch(u){}}();/* ]]&gt; */&lt;/script&gt;\nFormat settings, CABAC : Yes\nFormat settings, ReFrames : 4 frames\nCodec ID : V_MPEG4/ISO/AVC\nDuration : 1h 57mn\nBit rate : 900 Kbps\nWidth : 1 280 pixels\nHeight : 536 pixels\nDisplay aspect ratio : 2.40:1\nFrame rate mode : Constant\nFrame rate : 23.976 fps\nColor space : YUV\nChroma subsampling : 4:2:0\nBit depth : 8 bits\nScan type : Progressive\nBits/(Pixel*Frame) : 0.055\nStream size : 732 MiB (56%)\nTitle : Mafiaking\nLanguage : English\nDefault : Yes\nForced : No\n\nAudio #1\nID : 2\nFormat : AC-3\nFormat/Info : Audio Coding 3\nMode extension : CM (complete main)\nFormat settings, Endianness : Big\nCodec ID : A_AC3\nDuration : 1h 57mn\nBit rate mode : Constant\nBit rate : 448 Kbps\nChannel(s) : 6 channels\nChannel positions : Front: L C R, Side: L R, LFE\nSampling rate : 48.0 KHz\nBit depth : 16 bits\nCompression mode : Lossy\nStream size : 376 MiB (29%)\nTitle : Mafiaking\nLanguage : Hindi\nDefault : Yes\nForced : No\n\nAudio #2\nID : 3\nFormat : AC-3\nFormat/Info : Audio Coding 3\nMode extension : CM (complete main)\nFormat settings, Endianness : Big\nCodec ID : A_AC3\nDuration : 1h 57mn\nBit rate mode : Constant\nBit rate : 192 Kbps\nChannel(s) : 6 channels\nChannel positions : Front: L C R, Side: L R, LFE\nSampling rate : 48.0 KHz\nBit depth : 16 bits\nCompression mode : Lossy\nStream size : 161 MiB (12%)\nTitle : Mafiaking\nLanguage : English\nDefault : No\nForced : No\n\n\n\n\nScreens:\n &lt;a href=&quot;\nhttp://imgfun.biz/x/img-536ccd2ad4025.html&quot; rel=&quot;nofollow&quot; target=&quot;_NEW&quot;&gt;\nhttp://imgfun.biz/x/img-536ccd2ad4025.html&lt;/a&gt;\n &lt;a href=&quot;\nhttp://imgfun.biz/x/img-536ccd45767aa.html&quot; rel=&quot;nofollow&quot; target=&quot;_NEW&quot;&gt;\nhttp://imgfun.biz/x/img-536ccd45767aa.html&lt;/a&gt;\n &lt;a href=&quot;\nhttp://imgfun.biz/x/img-536ccd613f991.html&quot; rel=&quot;nofollow&quot; target=&quot;_NEW&quot;&gt;\nhttp://imgfun.biz/x/img-536ccd613f991.html&lt;/a&gt;","torrent":{"xt":"urn:btih:2bfac79fe498301527f78faef66b5031dd20ed46","amp;dn":"RoboCop+%282014%29+720p+Blu-Ray+x264+%5BDual-Audio%5D+%5BEnglish+BD+5.1+%2B+","amp;tr":["udp%3A%2F%2Ftracker.openbittorrent.com%3A80","udp%3A%2F%2Fopen.demonii.com%3A1337","udp%3A%2F%2Ftracker.coppersurfer.tk%3A6969","udp%3A%2F%2Fexodus.desync.com%3A6969"],"infoHash":"2bfac79fe498301527f78faef66b5031dd20ed46","infoHashBuffer":{"type":"Buffer","data":[43,250,199,159,228,152,48,21,39,247,143,174,246,107,80,49,221,32,237,70]},"announce":[],"urlList":[]}}